# xmcd
#
# Track frame offsets:
#  150
#  13779
#  29866
#  45747
#  64445
#  84918
#  104768
#  122767
#  136442
#  149701
#
# Disc length: 2216 seconds
#
# Revision: 0
# Processed by: cddbd v1.5.1PL0 Copyright (c) Steve Scherf et al.
# Submitted via: Collectorz.com_Music_Collector 6.9
#
DISCID=9d08a60a
DTITLE=Joanne Redding - How It Is
DYEAR=2004
DGENRE=Blues -  Blues Female Vocalist
TTITLE0=How It Is
TTITLE1=Credit Card Shuffle
TTITLE2=Tread Softly
TTITLE3=Love And A Song
TTITLE4=Chameleon
TTITLE5=Be Your Own Woman
TTITLE6=A Family To Love
TTITLE7=I've Earned The Right (To Sing The Blues)
TTITLE8=Don't Tempt Me
TTITLE9=What's In Your Bag
EXTD=
EXTT0=
EXTT1=
EXTT2=
EXTT3=
EXTT4=
EXTT5=
EXTT6=
EXTT7=
EXTT8=
EXTT9=
PLAYORDER=
